HIERARCHY
ROOT Hips
{
  OFFSET -85.0482 97.2525 -98.7547
  CHANNELS 6 Xposition Yposition Zposition Zrotation Xrotation Yrotation
  JOINT RightUpLeg
  {
    OFFSET -8.9458 -8.66707 0.101652
    CHANNELS 3 Zrotation Xrotation Yrotation
    JOINT RightLeg
    {
      OFFSET 0 -44.4227 1.3727
      CHANNELS 3 Zrotation Xrotation Yrotation
      JOINT RightFoot
      {
        OFFSET 0.253549 -42.0924 -1.46059
        CHANNELS 3 Zrotation Xrotation Yrotation
        JOINT RightToes
        {
          OFFSET 0.04 -4.41509 8.4991
          CHANNELS 3 Zrotation Xrotation Yrotation
          End Site
          {
            OFFSET -0.08 -0.137448 9.77979
          }
        }
      }
    }
  }
  JOINT Spine
  {
    OFFSET 0 11.8905 0
    CHANNELS 3 Zrotation Xrotation Yrotation
    JOINT Spine1
    {
      OFFSET 0 25.6574 0.127663
      CHANNELS 3 Zrotation Xrotation Yrotation
      JOINT HEad
      {
        OFFSET 0 8.73416 0.011341
        CHANNELS 3 Zrotation Xrotation Yrotation
        End Site
        {
          OFFSET -0.29 12.7742 2.51395
        }
      }
      JOINT LeftShoulder1
      {
        OFFSET 8.99 -0.362252 -0.22
        CHANNELS 3 Zrotation Xrotation Yrotation
        JOINT LeftArm
        {
          OFFSET 10.2827 -0.00338 0.322123
          CHANNELS 3 Zrotation Xrotation Yrotation
          JOINT LeftForeArm
          {
            OFFSET 32.7669 0.099144 -1.42434
            CHANNELS 3 Zrotation Xrotation Yrotation
            JOINT LeftHand
            {
              OFFSET 27.5643 0.085362 1.02216
              CHANNELS 3 Zrotation Xrotation Yrotation
              End Site
              {
                OFFSET 16.7443 -0.6 1.50291
              }
            }
          }
        }
      }
      JOINT RightShoulder
      {
        OFFSET -8.99 -0.362252 -0.22
        CHANNELS 3 Zrotation Xrotation Yrotation
        JOINT RightArm
        {
          OFFSET -10.2827 -0.00338 0.322123
          CHANNELS 3 Zrotation Xrotation Yrotation
          JOINT RightForeArm
          {
            OFFSET -32.8971 0.099144 -1.42434
            CHANNELS 3 Zrotation Xrotation Yrotation
            JOINT RightHand
            {
              OFFSET -27.4921 0.085362 1.02216
              CHANNELS 3 Zrotation Xrotation Yrotation
              End Site
              {
                OFFSET -16.6312 -0.6 1.50291
              }
            }
          }
        }
      }
    }
  }
  JOINT LeftUpLeg
  {
    OFFSET 8.9458 -8.66707 0.101652
    CHANNELS 3 Zrotation Xrotation Yrotation
    JOINT LeftLeg
    {
      OFFSET 0 -44.4227 1.3727
      CHANNELS 3 Zrotation Xrotation Yrotation
      JOINT LeftFoot
      {
        OFFSET -0.253549 -42.0924 -1.46059
        CHANNELS 3 Zrotation Xrotation Yrotation
        JOINT LeftToes
        {
          OFFSET -0.04 -4.41509 8.4991
          CHANNELS 3 Zrotation Xrotation Yrotation
          End Site
          {
            OFFSET 0.08 -0.047448 9.77979
          }
        }
      }
    }
  }
}
MOTION
Frames:	11
Frame Time:	0.0166667
-106.378 88.7114 -66.452 -4.44753 9.15125 -56.7528 -12.4903 -17.07 -6.02926 -8.65396 31.4846 8.19851 22.9538 19.2858 -5.43371 -21.1245 -34.2155 -2.09362 3.32563 7.0586 2.61528 8.46324 13.9402 4.77927 -3.33141 -12.3063 35.068 3.18055e-015 -5.56597e-015 -6.36111e-015 0.257977 -21.7404 -8.00974 -18.8776 -27.1645 -39.9418 -10.1333 15.0832 -47.6733 23.0541 7.89567 28.5941 49.9351 -19.3709 44.6785 -9.51032 41.2306 123.948 -19.7987 14.6014 -32.3808 18.6375 -32.3688 2.01443 18.2815 46.4855 -9.73829 -13.2413 -2.34836 0.616362 14.0068 -18.768 -0.677213 
-105.481 88.6121 -66.7032 -4.96806 9.27931 -56.1212 -12.6556 -17.4023 -5.88774 -7.69749 33.6493 8.66443 22.4648 18.3438 -5.13474 -20.6867 -33.9442 -1.19694 3.20688 7.32858 1.9454 8.18167 14.3852 3.45661 -3.74723 -11.9718 35.147 -1.59028e-015 -3.18055e-015 -0 -0.0996671 -24.0402 -12.7307 -15.9786 -17.8502 -43.4026 -4.5034 12.2768 -45.4199 22.943 8.03245 29.228 51.7273 -20.5598 45.7014 -9.31377 42.3915 123.515 -20.0044 14.5802 -31.9661 18.0658 -32.7094 1.64108 20.0156 45.6312 -11.2751 -13.6237 -0.270637 0.869147 15.689 -21.1068 -0.917018 
-104.656 88.4995 -66.8619 -5.33556 9.30901 -56.0697 -12.8949 -17.7285 -5.69927 -6.93214 35.9534 9.47847 21.6409 17.4004 -4.76888 -20.6213 -34.1351 -0.513712 3.01809 7.54963 1.62936 7.70087 14.764 2.86195 -4.23817 -11.5131 34.937 -1.59028e-015 -3.97569e-015 -3.18055e-015 -2.24588 -26.7813 -16.8512 -15.099 -10.5585 -47.465 -1.78676 11.0081 -44.1172 22.2799 7.97352 29.7477 53.9081 -21.4743 47.14 -9.27763 43.4905 123.326 -20.2718 14.6289 -31.8705 17.6653 -32.8777 1.2771 21.0983 45.1827 -12.1808 -13.9688 1.26117 1.06908 16.9695 -22.8456 -0.983866 
-103.924 88.3853 -66.9425 -5.55628 9.26939 -56.5275 -13.1356 -18.0116 -5.40919 -6.38467 38.4347 10.2133 20.4821 16.3044 -4.319 -20.7057 -34.4329 -0.119151 2.78411 7.72279 1.59888 7.0613 15.0694 2.86197 -4.75141 -11.0155 34.5471 -1.59028e-015 -9.54166e-015 3.18055e-015 -6.1645 -29.954 -20.193 -16.1436 -4.58588 -51.687 -1.13644 10.7136 -43.7471 21.2676 7.75178 30.0623 56.1446 -22.0898 48.6086 -9.4417 44.2746 123.642 -20.4933 14.7217 -32.0862 17.4791 -32.9205 0.9932 21.6114 45.1459 -12.6161 -14.2345 2.23154 1.20453 17.7981 -23.9258 -0.928021 
-103.301 88.27 -66.9752 -5.64878 9.17985 -57.3366 -13.3566 -18.1947 -4.99244 -5.98808 41.1039 10.4937 19.0471 14.9308 -3.79216 -20.7316 -34.4898 -0.0790056 2.52225 7.8422 1.76382 6.31927 15.2833 3.27529 -5.19873 -10.5329 34.0484 3.18055e-015 1.59028e-015 -6.36111e-015 -11.6151 -33.7549 -22.5517 -18.279 1.58065 -55.9116 -1.17032 10.721 -43.3652 20.1208 7.41641 30.093 58.1865 -22.4007 49.8177 -9.86785 44.5649 124.591 -20.5176 14.8343 -32.68 17.5183 -32.9092 0.852469 21.6323 45.4648 -12.73 -14.3915 2.71324 1.27572 18.2196 -24.4401 -0.827285 
-102.793 88.147 -66.9954 -5.64275 9.05079 -58.3153 -13.5751 -18.2085 -4.45861 -5.61248 43.9132 10.1194 17.4665 13.2453 -3.22889 -20.5269 -34.0491 -0.379751 2.24528 7.90097 2.03853 5.54168 15.3889 3.92522 -5.49952 -10.0904 33.4707 -1.59028e-015 6.36111e-015 1.59028e-014 -18.0985 -38.3945 -23.7473 -20.223 9.17053 -60.1754 -0.426445 10.3869 -42.4351 19.0178 7.02063 29.7996 59.9007 -22.4276 50.6148 -10.5454 44.3096 126.11 -20.2375 14.9416 -33.6823 17.7726 -32.9123 0.895242 21.2276 46.0552 -12.6252 -14.4248 2.84091 1.29403 18.3496 -24.5713 -0.738555 
-102.389 88.0072 -67.033 -5.57457 8.88413 -59.3117 -13.8266 -17.9935 -3.84571 -5.12007 46.7645 9.11381 15.9273 11.3262 -2.69034 -19.9847 -33.0064 -0.911566 1.9635 7.89643 2.36121 4.79867 15.3806 4.6785 -5.62253 -9.69197 32.8077 1.59028e-015 -1.59028e-015 -6.36111e-015 -24.8195 -43.8939 -23.6265 -21.0213 18.2739 -64.8058 1.87365 9.42441 -40.9894 18.0765 6.61063 29.192 61.2492 -22.2115 50.9632 -11.3707 43.5737 127.984 -19.6306 15.0162 -35.0306 18.2153 -32.9754 1.12879 20.4605 46.8358 -12.3578 -14.3398 2.77072 1.2778 18.3293 -24.5156 -0.677199 
-102.069 87.8426 -67.1062 -5.48233 8.67417 -60.2341 -14.147 -17.5189 -3.20265 -4.41426 49.5372 7.68837 14.6165 9.3381 -2.231 -19.1047 -31.4394 -1.52056 1.6904 7.83348 2.70066 4.15652 15.2684 5.4604 -5.60455 -9.32292 32.0326 -0 -3.18055e-015 -0 -30.7232 -49.9499 -21.9731 -20.2477 27.9057 -70.2963 5.57727 7.98527 -39.1494 17.3537 6.21953 28.3249 62.2482 -21.802 50.895 -12.2032 42.4941 129.953 -18.7549 15.0351 -36.5861 18.8053 -33.11 1.52584 19.3973 47.743 -11.9505 -14.1666 2.64083 1.2466 18.2796 -24.4247 -0.623645 
-101.803 87.6494 -67.2199 -5.40072 8.40844 -61.0542 -14.5639 -16.7896 -2.56836 -3.46286 52.1198 6.14329 13.6635 7.4633 -1.87802 -17.9975 -29.5715 -2.07444 1.44597 7.72494 3.05082 3.6704 15.077 6.24675 -5.53706 -8.95095 31.1245 1.59028e-015 -6.36111e-015 -6.36111e-015 -34.5998 -55.9475 -18.3596 -17.8438 36.6628 -76.9122 9.9257 6.457 -36.9861 16.8553 5.86623 27.2826 62.9433 -21.2415 50.4708 -12.9349 41.2227 131.814 -17.7111 14.9886 -38.1935 19.4884 -33.2935 2.03146 18.1035 48.7305 -11.4026 -13.952 2.55144 1.21674 18.2805 -24.3888 -0.543753 
-101.563 87.429 -67.3696 -5.35666 8.06835 -61.7905 -15.0978 -15.842 -1.95623 -2.28512 54.433 4.74789 13.1169 5.81953 -1.62875 -16.8176 -27.6579 -2.48649 1.25288 7.58927 3.41901 3.37667 14.8413 7.04299 -5.53018 -8.5296 30.093 1.59028e-015 1.59028e-015 -1.27222e-014 -35.275 -59.7246 -12.3276 -13.8684 42.0341 -84.5368 13.9788 5.2471 -34.4968 16.5491 5.55708 26.1578 63.4037 -20.5503 49.7576 -13.5223 39.8783 133.458 -16.5967 14.8817 -39.7366 20.2025 -33.4791 2.57751 16.633 49.7596 -10.6955 -13.7426 2.56206 1.19905 18.3711 -24.4444 -0.406069 
-101.324 87.188 -67.5486 -5.36694 7.63105 -62.4845 -15.7647 -14.7316 -1.35348 -0.924254 56.4347 3.65838 12.9622 4.4196 -1.46192 -15.6763 -25.8661 -2.70689 1.12835 7.44737 3.81426 3.28568 14.6009 7.86217 -5.6695 -8.00619 28.9883 -3.18055e-015 0 -1.27222e-014 -33.8848 -58.922 -5.2572 -9.32764 41.9811 -91.7569 17.0029 4.5929 -31.8139 16.3842 5.29038 25.0329 63.7149 -19.7212 48.8189 -13.9758 38.5235 134.857 -15.4771 14.7263 -41.158 20.8862 -33.61 3.09973 15.0158 50.7884 -9.79721 -13.568 2.70057 1.1988 18.5614 -24.5949 -0.191457 
